<?xml version="1.0" standalone="no"?>
<svg xmlns:xlink="http://www.w3.org/1999/xlink" id="wave" style="transform:rotate(0deg); transition: 0.3s" viewBox="0 0 1440 490" version="1.1" xmlns="http://www.w3.org/2000/svg"><defs><linearGradient id="sw-gradient-0" x1="0" x2="0" y1="1" y2="0"><stop stop-color="rgba(0, 31, 63, 1)" offset="0%"/><stop stop-color="rgba(111, 177, 193, 1)" offset="100%"/></linearGradient></defs><path style="transform:translate(0, 0px); opacity:1" fill="url(#sw-gradient-0)" d="M0,245L20,212.3C40,180,80,114,120,106.2C160,98,200,147,240,196C280,245,320,294,360,326.7C400,359,440,376,480,367.5C520,359,560,327,600,302.2C640,278,680,261,720,220.5C760,180,800,114,840,98C880,82,920,114,960,138.8C1000,163,1040,180,1080,179.7C1120,180,1160,163,1200,155.2C1240,147,1280,147,1320,171.5C1360,196,1400,245,1440,236.8C1480,229,1520,163,1560,171.5C1600,180,1640,261,1680,261.3C1720,261,1760,180,1800,138.8C1840,98,1880,98,1920,122.5C1960,147,2000,196,2040,228.7C2080,261,2120,278,2160,285.8C2200,294,2240,294,2280,310.3C2320,327,2360,359,2400,359.3C2440,359,2480,327,2520,277.7C2560,229,2600,163,2640,179.7C2680,196,2720,294,2760,343C2800,392,2840,392,2860,392L2880,392L2880,490L2860,490C2840,490,2800,490,2760,490C2720,490,2680,490,2640,490C2600,490,2560,490,2520,490C2480,490,2440,490,2400,490C2360,490,2320,490,2280,490C2240,490,2200,490,2160,490C2120,490,2080,490,2040,490C2000,490,1960,490,1920,490C1880,490,1840,490,1800,490C1760,490,1720,490,1680,490C1640,490,1600,490,1560,490C1520,490,1480,490,1440,490C1400,490,1360,490,1320,490C1280,490,1240,490,1200,490C1160,490,1120,490,1080,490C1040,490,1000,490,960,490C920,490,880,490,840,490C800,490,760,490,720,490C680,490,640,490,600,490C560,490,520,490,480,490C440,490,400,490,360,490C320,490,280,490,240,490C200,490,160,490,120,490C80,490,40,490,20,490L0,490Z"/></svg>